<svg xmlns="http://www.w3.org/2000/svg" xmlns:xlink="http://www.w3.org/1999/xlink" width="1024" height="1024" viewBox="0 0 1024 1024">
  <defs>
    <filter id="Rectangle_11" x="30" y="33" width="964" height="964" filterUnits="userSpaceOnUse">
      <feOffset dy="3" input="SourceAlpha"/>
      <feGaussianBlur stdDeviation="3" result="blur"/>
      <feFlood flood-opacity="0.161"/>
      <feComposite operator="in" in2="blur"/>
      <feComposite in="SourceGraphic"/>
    </filter>
    <filter id="Rectangle_35" x="-6" y="4" width="1036" height="1036" filterUnits="userSpaceOnUse">
      <feOffset dy="10" input="SourceAlpha"/>
      <feGaussianBlur stdDeviation="15" result="blur-2"/>
      <feFlood flood-color="#2c3e50" flood-opacity="0.38"/>
      <feComposite operator="in" in2="blur-2"/>
      <feComposite in="SourceGraphic"/>
    </filter>
    <filter id="Rectangle_36" x="24" y="27" width="976" height="976" filterUnits="userSpaceOnUse">
      <feOffset dy="3" input="SourceAlpha"/>
      <feGaussianBlur stdDeviation="5" result="blur-3"/>
      <feFlood flood-color="#2c3e50" flood-opacity="0.341"/>
      <feComposite operator="in" in2="blur-3"/>
      <feComposite in="SourceGraphic"/>
    </filter>
    <clipPath id="clip-path">
      <g transform="matrix(1, 0, 0, 1, 0, 0)" filter="url(#Rectangle_11)">
        <rect id="Rectangle_11-2" data-name="Rectangle 11" width="946" height="946" rx="85" transform="translate(0.03 0.03)" fill="#2c3e50"/>
      </g>
    </clipPath>
    <clipPath id="clip-app-icon-full-yellow_1">
      <rect width="1024" height="1024"/>
    </clipPath>
  </defs>
  <g id="app-icon-full-yellow_1" data-name="app-icon-full-yellow – 1" clip-path="url(#clip-app-icon-full-yellow_1)">
    <g transform="matrix(1, 0, 0, 1, 0, 0)" filter="url(#Rectangle_35)">
      <rect id="Rectangle_35-2" data-name="Rectangle 35" width="946" height="946" rx="84" transform="translate(39 39)" fill="#ffc107"/>
    </g>
    <g transform="matrix(1, 0, 0, 1, 0, 0)" filter="url(#Rectangle_36)">
      <rect id="Rectangle_36-2" data-name="Rectangle 36" width="946" height="946" rx="84" transform="translate(39 39)" fill="#2c3e50"/>
    </g>
    <g id="Groupe_194" data-name="Groupe 194" transform="translate(2.973 28.974)">
      <g id="Groupe_de_masques_2" data-name="Groupe de masques 2" transform="translate(36.001 10)" clip-path="url(#clip-path)">
        <path id="Tracé_160" data-name="Tracé 160" d="M10,0H936a10,10,0,0,1,10,10V936a10,10,0,0,1-10,10H10A10,10,0,0,1,0,936V10A10,10,0,0,1,10,0Z" transform="translate(0.027 0.026)" fill="#2c3e50"/>
        <g id="Groupe_134" data-name="Groupe 134" transform="translate(90.022)">
          <rect id="Rectangle_10" data-name="Rectangle 10" width="946" height="946" transform="translate(0.005 0.026)" fill="none"/>
        </g>
      </g>
      <g id="Groupe_79" data-name="Groupe 79" transform="translate(153.143 217.869)">
        <g id="Groupe_57" data-name="Groupe 57" transform="translate(0 429.525)">
          <path id="Tracé_52" data-name="Tracé 52" d="M332.263,880.242h31.828v48.337a21.969,21.969,0,0,1,6.471-9.773q4.358-3.692,13.207-3.7,20.47,0,20.47,22.055v39.752h7.4v2.377H374.26v-2.377h5.415V934q0-7.93-1.057-10.239a3.849,3.849,0,0,0-3.83-2.308q-4.226,0-7.462,5.544a26.309,26.309,0,0,0-3.236,13.471v36.45h5.679v2.377H332.263v-2.377h7.264V882.623h-7.264Z" transform="translate(-332.263 -880.242)" fill="#fff"/>
          <path id="Tracé_53" data-name="Tracé 53" d="M363.179,946.8q-8.452-8.447-8.452-24.234t9.047-24.3q9.047-8.513,25.423-8.519t24.432,7.862q8.056,7.853,8.056,23.967,0,33.677-33.545,33.681Q371.632,955.255,363.179,946.8Zm33.149-18.885V916.688q0-12.805-1.387-18.688t-6.405-5.873a6.624,6.624,0,0,0-4.688,1.647,10.152,10.152,0,0,0-2.575,5.481q-1.189,5.943-1.189,18.1v10.3q0,14.4.858,17.3a29.589,29.589,0,0,0,1.783,4.755q1.453,3.17,5.679,3.169,5.15,0,6.735-5.943Q396.328,942.7,396.328,927.914Z" transform="translate(-272.317 -854.881)" fill="#fff"/>
          <path id="Tracé_54" data-name="Tracé 54" d="M382.727,946.8q-8.452-8.447-8.452-24.234t9.047-24.3q9.047-8.513,25.423-8.519t24.432,7.862q8.056,7.853,8.056,23.967,0,33.677-33.545,33.681Q391.18,955.255,382.727,946.8Zm33.149-18.885V916.688q0-12.805-1.39-18.688t-6.4-5.873a6.624,6.624,0,0,0-4.688,1.647,10.154,10.154,0,0,0-2.575,5.481q-1.188,5.943-1.189,18.1v10.3q0,14.4.858,17.3a29.578,29.578,0,0,0,1.783,4.755q1.453,3.17,5.679,3.169,5.151,0,6.735-5.943Q415.876,942.7,415.876,927.914Z" transform="translate(-220.153 -854.881)" fill="#fff"/>
          <path id="Tracé_55" data-name="Tracé 55" d="M437.105,979.292v-2.377h6.075l-14.924-30.64-2.509.661v29.979h6.075v2.377h-37.9v-2.377h7.264V882.623h-7.792v-2.381h32.356v64.053l2.113-.793,29.715-24.7H445.161v-2.377h26.017v2.377h-9.245l-15.716,13.342,22.848,44.767h4.751v2.377Z" transform="translate(-169.142 -880.242)" fill="#fff"/>
          <path id="Tracé_56" data-name="Tracé 56" d="M428.539,924.321q-5.74,0-8.584-3.368a12.293,12.293,0,0,1-2.84-8.192,11.7,11.7,0,0,1,2.971-8.122q2.972-3.3,8.386-3.3t8.584,2.773q3.17,2.779,3.17,8.32t-2.971,8.716Q434.284,924.318,428.539,924.321Z" transform="translate(-105.834 -823.947)" fill="#fff"/>
          <path id="Tracé_57" data-name="Tracé 57" d="M479.06,953.826h-6.053V918.719q0-12.227-3.448-17.8T458.6,895.354a22.814,22.814,0,0,0-7.931,1.453,26.978,26.978,0,0,0-7.326,4.116,30.14,30.14,0,0,0-5.932,6.236,25.658,25.658,0,0,0-3.753,7.686v38.982h-6.053V890.875h5.69v15.012a29.586,29.586,0,0,1,4.784-6.6A30.127,30.127,0,0,1,444.5,894.2a32.305,32.305,0,0,1,7.565-3.265,29.616,29.616,0,0,1,8.236-1.152q10.285,0,14.524,7.205t4.237,20.639Z" transform="translate(-77.83 -854.777)" fill="#fff"/>
          <path id="Tracé_58" data-name="Tracé 58" d="M476.179,955.037a28.847,28.847,0,0,1-12.286-2.6,30.4,30.4,0,0,1-9.747-7.077,32.742,32.742,0,0,1-6.416-10.415,34.176,34.176,0,0,1-2.3-12.469,33.965,33.965,0,0,1,8.838-23,30.473,30.473,0,0,1,9.744-7.08,28.6,28.6,0,0,1,12.169-2.6,28.182,28.182,0,0,1,12.106,2.6,31.357,31.357,0,0,1,9.747,7.08,33.138,33.138,0,0,1,6.537,10.415,34.133,34.133,0,0,1-6.479,35.471,30.46,30.46,0,0,1-9.744,7.077A28.6,28.6,0,0,1,476.179,955.037Zm-24.7-32.324a28.215,28.215,0,0,0,1.937,10.47,27.335,27.335,0,0,0,5.264,8.537,24.89,24.89,0,0,0,7.81,5.752,22.665,22.665,0,0,0,19.128,0,24.813,24.813,0,0,0,7.869-5.873,28.291,28.291,0,0,0,5.327-8.654,28.592,28.592,0,0,0,1.937-10.595,28.214,28.214,0,0,0-1.937-10.47,27.525,27.525,0,0,0-5.327-8.6,26.344,26.344,0,0,0-7.81-5.873,21.185,21.185,0,0,0-9.5-2.176,21.572,21.572,0,0,0-9.564,2.176,25.013,25.013,0,0,0-7.81,5.932,29.54,29.54,0,0,0-5.327,8.779A28.484,28.484,0,0,0,451.482,922.714Z" transform="translate(-30.277 -854.777)" fill="#fff"/>
          <path id="Tracé_59" data-name="Tracé 59" d="M498.587,965.682c-.326.165-.869.466-1.636.91a16.809,16.809,0,0,1-2.905,1.269,36.187,36.187,0,0,1-3.933,1.093,22.022,22.022,0,0,1-4.725.48,15.413,15.413,0,0,1-4.78-.726,11.368,11.368,0,0,1-3.936-2.179,10.391,10.391,0,0,1-2.66-3.511,11.206,11.206,0,0,1-.972-4.843V910.724h-8.834v-4.967h8.834V884.208H479.1v21.549h14.648v4.967H479.1v46a6.072,6.072,0,0,0,2.421,5.264,9.063,9.063,0,0,0,5.444,1.757,15.255,15.255,0,0,0,6.479-1.273q2.724-1.271,3.331-1.633Z" transform="translate(19.829 -869.659)" fill="#fff"/>
          <path id="Tracé_60" data-name="Tracé 60" d="M476.481,894.29V883.152h6.053V894.29Zm0,77.237V908.575h6.053v62.952Z" transform="translate(52.585 -872.477)" fill="#fff"/>
          <path id="Tracé_61" data-name="Tracé 61" d="M490.5,914.423h-8.838v-4.967H490.5V907.4a32.288,32.288,0,0,1,1.211-8.537,24.422,24.422,0,0,1,3.753-7.928,20.531,20.531,0,0,1,6.6-5.811,19.446,19.446,0,0,1,9.744-2.3,29.4,29.4,0,0,1,6.115.605,39.607,39.607,0,0,1,5.022,1.391,19.213,19.213,0,0,1,3.632,1.7,24.678,24.678,0,0,1,2.058,1.391l-3.023,4.237a14.167,14.167,0,0,0-5.331-2.722,27.231,27.231,0,0,0-8.232-1.148,13.651,13.651,0,0,0-7.08,1.754,15.146,15.146,0,0,0-4.846,4.479,18.666,18.666,0,0,0-2.722,6.112,27.408,27.408,0,0,0-.844,6.659v2.179h30.871v62.952H521.37V914.423H496.556v57.985H490.5Z" transform="translate(66.411 -873.357)" fill="#fff"/>
          <path id="Tracé_62" data-name="Tracé 62" d="M529.209,955.037a29.274,29.274,0,0,1-12.348-2.6,30.5,30.5,0,0,1-9.868-7.139,33.925,33.925,0,0,1-8.9-23.185,33.339,33.339,0,0,1,8.837-22.818,30.073,30.073,0,0,1,9.744-6.959,30.462,30.462,0,0,1,24.517.059A30.681,30.681,0,0,1,551,899.408a32.129,32.129,0,0,1,6.416,10.294,33.7,33.7,0,0,1,2.3,12.407v1.515a3.254,3.254,0,0,1-.121,1.149h-55.2a28.039,28.039,0,0,0,2.542,10.11,28.657,28.657,0,0,0,5.51,8.049,24.749,24.749,0,0,0,7.686,5.331,22.736,22.736,0,0,0,9.322,1.933,23.054,23.054,0,0,0,6.416-.906,26.173,26.173,0,0,0,5.87-2.484,21.09,21.09,0,0,0,4.842-3.811,17.829,17.829,0,0,0,3.331-4.9l5.327,1.456a20.108,20.108,0,0,1-3.933,6.233,26.727,26.727,0,0,1-6.057,4.9,30.781,30.781,0,0,1-7.565,3.21A31.335,31.335,0,0,1,529.209,955.037Zm24.7-35.108a28.538,28.538,0,0,0-2.48-10.169,27.338,27.338,0,0,0-5.451-7.931,24.555,24.555,0,0,0-7.686-5.206,24.158,24.158,0,0,0-18.643,0,24.57,24.57,0,0,0-7.689,5.206,25.241,25.241,0,0,0-5.323,7.994,30.633,30.633,0,0,0-2.363,10.107Z" transform="translate(110.266 -854.777)" fill="#fff"/>
          <path id="Tracé_63" data-name="Tracé 63" d="M548.307,895.7a24.734,24.734,0,0,0-23.732,18.163v39.341h-6.053V890.255h5.811v15.5a30.333,30.333,0,0,1,8.658-10.837,22.153,22.153,0,0,1,11.559-4.784c.807-.081,1.533-.117,2.179-.117h1.578Z" transform="translate(164.772 -854.157)" fill="#fff"/>
        </g>
        <g id="Groupe_81" data-name="Groupe 81" transform="translate(190.57 0)">
          <rect id="Rectangle_6" data-name="Rectangle 6" width="375" height="375" transform="translate(0.316 0.157)" fill="none"/>
          <g id="Groupe_56" data-name="Groupe 56" transform="translate(84.569 25.989)">
            <path id="Tracé_51" data-name="Tracé 51" d="M461.1,1058.345a37.979,37.979,0,0,1-37.941-37.941v-.655H410.3a12.864,12.864,0,1,1,0-25.728h38.6V1020.4a12.223,12.223,0,0,0,12.21,12.21,13.529,13.529,0,0,0,13.518-13.518V994.021h64.327a38.676,38.676,0,0,0,36.4-25.73H551.814V903.963a90.165,90.165,0,0,0-90.057-90.055H448.893V749.584a12.864,12.864,0,1,1,25.728,0v39.3a115.961,115.961,0,0,1,102.92,115.08v38.6h25.731v12.865a64.39,64.39,0,0,1-64.324,64.324h-38.6A39.306,39.306,0,0,1,461.1,1058.345Z" transform="translate(-397.432 -736.719)" fill="#fff"/>
          </g>
        </g>
      </g>
    </g>
  </g>
</svg>
