<svg xmlns="http://www.w3.org/2000/svg" xmlns:xlink="http://www.w3.org/1999/xlink" width="168.552" height="49.737" viewBox="0 0 168.552 49.737"><defs><linearGradient id="a" x1="2.472" y1="1.035" x2="2.361" y2="1.005" gradientUnits="objectBoundingBox"><stop offset="0" stop-color="#00a0ff"/><stop offset="0.007" stop-color="#00a1ff"/><stop offset="0.26" stop-color="#00beff"/><stop offset="0.512" stop-color="#00d2ff"/><stop offset="0.76" stop-color="#00dfff"/><stop offset="1" stop-color="#00e3ff"/></linearGradient><linearGradient id="b" x1="1.95" y1="1.879" x2="1.69" y2="1.879" gradientUnits="objectBoundingBox"><stop offset="0" stop-color="#ffe000"/><stop offset="0.409" stop-color="#ffbd00"/><stop offset="0.775" stop-color="orange"/><stop offset="1" stop-color="#ff9c00"/></linearGradient><linearGradient id="c" x1="1.926" y1="0.946" x2="1.835" y2="0.793" gradientUnits="objectBoundingBox"><stop offset="0" stop-color="#ff3a44"/><stop offset="1" stop-color="#c31162"/></linearGradient><linearGradient id="d" x1="1.856" y1="2.093" x2="1.897" y2="2.025" gradientUnits="objectBoundingBox"><stop offset="0" stop-color="#32a071"/><stop offset="0.068" stop-color="#2da771"/><stop offset="0.476" stop-color="#15cf74"/><stop offset="0.801" stop-color="#06e775"/><stop offset="1" stop-color="#00f076"/></linearGradient></defs><path d="M162.307,49.737H6.245A6.248,6.248,0,0,1,0,43.52V6.217A6.24,6.24,0,0,1,6.245,0H162.307a6.242,6.242,0,0,1,6.245,6.217v37.3A6.25,6.25,0,0,1,162.307,49.737Z" fill-rule="evenodd"/><path d="M162.307,1a5.25,5.25,0,0,1,5.25,5.222v37.3a5.24,5.24,0,0,1-5.25,5.222H6.245A5.25,5.25,0,0,1,1,43.52V6.217A5.24,5.24,0,0,1,6.245,1Zm0-1H6.245A6.248,6.248,0,0,0,0,6.217v37.3a6.24,6.24,0,0,0,6.245,6.217H162.307a6.242,6.242,0,0,0,6.245-6.217V6.217A6.25,6.25,0,0,0,162.307,0Z" fill="#a6a6a6" fill-rule="evenodd"/><path d="M1691.8,279.34a3.784,3.784,0,0,1-2.825-1.169,3.982,3.982,0,0,1-1.141-2.853,3.893,3.893,0,0,1,1.141-2.85,3.773,3.773,0,0,1,2.822-1.169,3.823,3.823,0,0,1,2.825,1.169,4.129,4.129,0,0,1,0,5.7A3.752,3.752,0,0,1,1691.8,279.34Zm-33.492,0a3.924,3.924,0,0,1-2.837-1.154,4.019,4.019,0,0,1,2.837-6.884,3.954,3.954,0,0,1,1.584.329,3.2,3.2,0,0,1,1.206.862l.074.09-.84.825-.087-.1a2.389,2.389,0,0,0-1.95-.84,2.7,2.7,0,0,0-1.944.794,3.014,3.014,0,0,0,0,4.13,2.842,2.842,0,0,0,3.941,0,2.148,2.148,0,0,0,.571-1.293h-2.695v-1.16h3.851l.016.105a4.267,4.267,0,0,1,.056.583,3.491,3.491,0,0,1-.961,2.574A3.751,3.751,0,0,1,1658.306,279.34Zm44.53-.164h-1.188l-3.637-5.82.031,1.048v4.769h-1.188v-7.705h1.355l.037.059,3.42,5.482-.031-1.045v-4.5h1.2Zm-19.963,0h-1.2v-6.549h-2.087v-1.16h5.374v1.16h-2.087v6.549Zm-4.27,0h-1.2v-7.709h1.2Zm-6.744,0h-1.2v-6.549h-2.087v-1.16h5.374v1.16h-2.087Zm-4.047-.012h-4.6v-7.7h4.6v1.16h-3.4v2.115h3.067v1.147h-3.067V278h3.4Zm22.04-1.789a2.655,2.655,0,0,0,1.944.806,2.588,2.588,0,0,0,1.944-.806,3.056,3.056,0,0,0,0-4.105,2.66,2.66,0,0,0-1.944-.806,2.576,2.576,0,0,0-1.941.806,3.06,3.06,0,0,0-.006,4.105Z" transform="translate(-1603.004 -262.888)" fill="#fff"/><path d="M1680.356,688.873a5.29,5.29,0,1,0,5.305,5.29A5.207,5.207,0,0,0,1680.356,688.873Zm0,8.484a3.215,3.215,0,1,1,2.983-3.206A3.061,3.061,0,0,1,1680.356,697.357Zm-11.575-8.484a5.29,5.29,0,1,0,5.306,5.29A5.207,5.207,0,0,0,1668.781,688.873Zm0,8.484a3.215,3.215,0,1,1,2.983-3.206A3.061,3.061,0,0,1,1668.781,697.357Zm-13.774-6.868v2.239h5.374a4.719,4.719,0,0,1-1.215,2.819,5.483,5.483,0,0,1-4.146,1.643,5.97,5.97,0,0,1,0-11.938,5.736,5.736,0,0,1,4.047,1.6l1.588-1.588a7.807,7.807,0,0,0-5.622-2.267,8.209,8.209,0,1,0,0,16.416,7.514,7.514,0,0,0,5.733-2.307,7.429,7.429,0,0,0,1.947-5.25,6.92,6.92,0,0,0-.124-1.4H1655S1655.007,690.488,1655.007,690.488Zm56.338,1.743a4.916,4.916,0,0,0-4.53-3.371,5.026,5.026,0,0,0-4.986,5.29,5.17,5.17,0,0,0,5.25,5.29,5.251,5.251,0,0,0,4.406-2.347l-1.8-1.2a3.008,3.008,0,0,1-2.6,1.464,2.7,2.7,0,0,1-2.57-1.6l7.073-2.93S1711.345,692.231,1711.345,692.231ZM1704.133,694a2.9,2.9,0,0,1,2.763-3.082,2.039,2.039,0,0,1,1.963,1.119Zm-5.746,5.126h2.323V683.583h-2.323Zm-3.814-9.076h-.084a3.663,3.663,0,0,0-2.791-1.188,5.29,5.29,0,0,0,0,10.571,3.654,3.654,0,0,0,2.791-1.2h.084v.76c0,2.019-1.079,3.107-2.819,3.107a2.932,2.932,0,0,1-2.667-1.879l-2.019.843a5.049,5.049,0,0,0,4.682,3.122c2.722,0,5.029-1.6,5.029-5.513v-9.492h-2.2v.871Zm-2.667,7.309a3.216,3.216,0,0,1,0-6.409,2.974,2.974,0,0,1,2.819,3.219A2.937,2.937,0,0,1,1691.906,697.357Zm30.313-13.774h-5.553v15.541h2.322v-5.885h3.234a4.835,4.835,0,1,0,0-9.656Zm.068,7.485h-3.3v-5.333h3.3a2.667,2.667,0,1,1,0,5.333Zm14.341-2.223a4.374,4.374,0,0,0-4.146,2.375l2.059.856a2.208,2.208,0,0,1,2.115-1.147,2.243,2.243,0,0,1,2.447,2v.164a5.2,5.2,0,0,0-2.419-.6c-2.223,0-4.477,1.216-4.477,3.495a3.592,3.592,0,0,0,3.854,3.426,3.269,3.269,0,0,0,2.955-1.519h.084v1.2h2.239v-5.953C1741.339,690.38,1739.28,688.845,1736.629,688.845Zm-.292,8.512c-.76,0-1.823-.372-1.823-1.327,0-1.2,1.327-1.659,2.459-1.659a4.032,4.032,0,0,1,2.115.524A2.8,2.8,0,0,1,1736.337,697.357Zm13.169-8.18-2.667,6.741h-.084l-2.763-6.741h-2.5l4.146,9.423-2.363,5.237h2.419l6.378-14.661Zm-20.905,9.947h2.322V683.583H1728.6Z" transform="translate(-1595.639 -661.822)" fill="#fff" fill-rule="evenodd"/><path d="M400.667,299.484a2.519,2.519,0,0,0-.567,1.755v27.495a2.4,2.4,0,0,0,.58,1.74l.1.084,15.4-15.4v-.344L400.764,299.4Z" transform="translate(-387.694 -290.116)" fill-rule="evenodd" fill="url(#a)"/><path d="M923.438,641.136,918.3,636v-.36l5.138-5.138.112.068,6.078,3.454c1.74.98,1.74,2.6,0,3.591l-6.078,3.454Z" transform="translate(-889.826 -610.95)" fill-rule="evenodd" fill="url(#b)"/><path d="M439.15,807.25,433.9,802l-15.5,15.5a2.034,2.034,0,0,0,2.583.084L439.15,807.25" transform="translate(-405.426 -777.132)" fill-rule="evenodd" fill="url(#c)"/><path d="M439.15,297.216,420.983,286.9a2.014,2.014,0,0,0-2.583.084l15.5,15.485Z" transform="translate(-405.426 -277.597)" fill-rule="evenodd" fill="url(#d)"/><path d="M439.426,967.7l-18.043,10.251a2.048,2.048,0,0,1-2.487.012l-.1.1.1.084a2.052,2.052,0,0,0,2.487-.012l18.168-10.319Z" transform="translate(-405.814 -937.694)" fill-rule="evenodd" opacity="0.2"/><path d="M1089.7,803.615l-6.2,3.523.112.112,6.078-3.454a2.178,2.178,0,0,0,1.3-1.8A2.237,2.237,0,0,1,1089.7,803.615Z" transform="translate(-1049.903 -777.132)" fill-rule="evenodd" opacity="0.12"/><path d="M403.25,286.907,427.5,300.681a2.285,2.285,0,0,1,1.3,1.616,2.178,2.178,0,0,0-1.3-1.8L403.25,286.727c-1.74-1-3.15-.164-3.15,1.823v.18C400.1,286.74,401.511,285.924,403.25,286.907Z" transform="translate(-387.694 -277.428)" fill="#fff" fill-rule="evenodd" opacity="0.25"/></svg>