<?xml version="1.0" encoding="utf-8"?>
<!-- Generator: Adobe Illustrator 24.3.0, SVG Export Plug-In . SVG Version: 6.00 Build 0)  -->
<svg version="1.1" id="Calque_1" xmlns="http://www.w3.org/2000/svg" xmlns:xlink="http://www.w3.org/1999/xlink" x="0px" y="0px"
	 viewBox="0 0 8 8" style="enable-background:new 0 0 8 8;" xml:space="preserve">
<style type="text/css">
	.st0{fill:#FFFFFF;}
</style>
<g transform="translate(136.147 41.803)">
	<path class="st0" d="M-132.3-33.9c-0.5,0-0.9-0.4-0.9-0.9v0h-0.3c-0.2,0-0.3-0.1-0.3-0.3s0.1-0.3,0.3-0.3l0,0h0.9v0.6
		c0,0.2,0.1,0.3,0.3,0.3c0.2,0,0.3-0.1,0.3-0.3v-0.6h1.6c0.4,0,0.8-0.3,0.9-0.6h-0.6v-1.6c0-1.2-1-2.2-2.2-2.2h-0.3v-1.6
		c0-0.2,0.1-0.3,0.3-0.3c0.2,0,0.3,0.1,0.3,0.3v1c1.4,0.2,2.5,1.4,2.5,2.8v0.9h0.6v0.3c0,0.9-0.7,1.6-1.6,1.6h-0.9
		C-131.3-34.3-131.8-33.9-132.3-33.9z"/>
</g>
</svg>
